<svg width="72" height="75" viewBox="0 0 72 75" fill="none" xmlns="http://www.w3.org/2000/svg">
<ellipse cx="36.2727" cy="44.4643" rx="19.9091" ry="11.7857" fill="#CDBCAC"/>
<path d="M35.73 30.4688C35.1332 30.4688 34.561 30.2218 34.139 29.7823C33.717 29.3427 33.48 28.7466 33.48 28.125C33.4396 27.1556 33.5305 26.1852 33.75 25.2422C34.0199 24.0555 34.0199 22.8195 33.75 21.6328C33.5305 20.6898 33.4396 19.7194 33.48 18.75C33.4396 17.7806 33.5305 16.8102 33.75 15.8672C33.9165 15.2808 34.0073 14.6739 34.02 14.0625C34.02 13.4409 34.257 12.8448 34.679 12.4052C35.101 11.9657 35.6732 11.7188 36.27 11.7188C36.8667 11.7188 37.439 11.9657 37.861 12.4052C38.2829 12.8448 38.52 13.4409 38.52 14.0625C38.5603 15.0319 38.4694 16.0023 38.25 16.9453C38.1063 17.5349 38.0382 18.1418 38.0475 18.75C38.0364 19.3506 38.1045 19.95 38.25 20.5313C38.4675 21.4825 38.5583 22.4604 38.52 23.4375C38.5603 24.4069 38.4694 25.3773 38.25 26.3203C38.1063 26.9099 38.0382 27.5168 38.0475 28.125C38.0476 28.4388 37.9873 28.7494 37.87 29.0385C37.7527 29.3275 37.5809 29.5891 37.3648 29.8076C37.1487 30.0262 36.8926 30.1974 36.6118 30.3109C36.3309 30.4245 36.0311 30.4782 35.73 30.4688Z" fill="#EDE3D9"/>
<path d="M44.82 28.125C44.2232 28.125 43.6509 27.8781 43.229 27.4385C42.807 26.999 42.57 26.4029 42.57 25.7812C42.5575 25.0695 42.6408 24.3595 42.8175 23.6719C42.8602 23.3374 42.8602 22.9985 42.8175 22.6641C42.8614 22.3218 42.8614 21.975 42.8175 21.6328C42.6408 20.9452 42.5575 20.2352 42.57 19.5234C42.5575 18.8117 42.6408 18.1017 42.8175 17.4141C42.8602 17.0796 42.8602 16.7407 42.8175 16.4062C42.8175 15.7846 43.0545 15.1885 43.4765 14.749C43.8985 14.3094 44.4707 14.0625 45.0675 14.0625C45.6642 14.0625 46.2365 14.3094 46.6585 14.749C47.0804 15.1885 47.3175 15.7846 47.3175 16.4062C47.33 17.118 47.2467 17.828 47.07 18.5156C47.0273 18.8501 47.0273 19.189 47.07 19.5234C47.0261 19.8657 47.0261 20.2125 47.07 20.5547C47.2485 21.242 47.3318 21.9522 47.3175 22.6641C47.33 23.3758 47.2467 24.0858 47.07 24.7734C47.0259 25.1078 47.0259 25.4469 47.07 25.7812C47.07 26.4029 46.8329 26.999 46.411 27.4385C45.989 27.8781 45.4167 28.125 44.82 28.125Z" fill="#EDE3D9"/>
<path d="M26.82 28.125C26.2233 28.125 25.651 27.8781 25.229 27.4385C24.8071 26.999 24.57 26.4029 24.57 25.7812C24.5575 25.0695 24.6408 24.3595 24.8175 23.6719C24.8979 23.3426 24.9357 23.0037 24.93 22.6641C24.9149 22.3134 24.8544 21.9665 24.75 21.6328C24.5733 20.9452 24.49 20.2352 24.5025 19.5234C24.49 18.8117 24.5733 18.1017 24.75 17.4141C24.8532 17.0881 24.9137 16.7491 24.93 16.4062C24.93 15.7846 25.1671 15.1885 25.589 14.749C26.011 14.3094 26.5833 14.0625 27.18 14.0625C27.7767 14.0625 28.349 14.3094 28.771 14.749C29.193 15.1885 29.43 15.7846 29.43 16.4062C29.4425 17.118 29.3592 17.828 29.1825 18.5156C29.1022 18.8449 29.0643 19.1838 29.07 19.5234C29.0631 19.8709 29.101 20.2177 29.1825 20.5547C29.361 21.242 29.4443 21.9522 29.43 22.6641C29.4425 23.3758 29.3592 24.0858 29.1825 24.7734C29.1008 25.1024 29.0629 25.4415 29.07 25.7812C29.07 26.4029 28.833 26.999 28.411 27.4385C27.989 27.8781 27.4167 28.125 26.82 28.125Z" fill="#EDE3D9"/>
<path d="M49.5 35.4609V42.1875C49.5 42.8091 49.2629 43.4052 48.841 43.8448C48.419 44.2843 47.8467 44.5313 47.25 44.5313C46.6533 44.5313 46.081 44.2843 45.659 43.8448C45.237 43.4052 45 42.8091 45 42.1875V33.9844C42.7896 33.3775 40.5299 32.9852 38.25 32.8125V44.5313C38.25 45.1529 38.0129 45.749 37.591 46.1885C37.169 46.6281 36.5967 46.875 36 46.875C35.4033 46.875 34.831 46.6281 34.409 46.1885C33.987 45.749 33.75 45.1529 33.75 44.5313V32.8125C31.4729 32.9544 29.2133 33.3153 27 33.8906V42.1875C27 42.8091 26.7629 43.4052 26.341 43.8448C25.919 44.2843 25.3467 44.5313 24.75 44.5313C24.1533 44.5313 23.581 44.2843 23.159 43.8448C22.737 43.4052 22.5 42.8091 22.5 42.1875V35.4609C13.365 39.1641 6.75 46.2891 6.75 53.9063C6.70013 55.0324 6.87425 56.157 7.26144 57.2097C7.64864 58.2624 8.24054 59.2203 9 60.0234C11.8575 62.9297 16.8525 63.4688 23.2425 63.4688C25.065 63.4688 27 63.4688 29.025 63.4688C33.525 63.4688 38.4975 63.4688 42.93 63.4688C52.065 63.7031 59.2875 63.8438 62.955 60.1172C63.734 59.3073 64.3409 58.3358 64.7363 57.2658C65.1317 56.1959 65.3067 55.0512 65.25 53.9063C65.25 46.2891 58.635 39.1641 49.5 35.4609Z" fill="#EDE3D9"/>
</svg>
