<svg width="80" height="70" viewBox="0 0 80 70" fill="none" xmlns="http://www.w3.org/2000/svg">
<path d="M57.1001 21.875C57.3848 21.1733 57.5203 20.4319 57.5 19.6875C57.5 17.947 56.7099 16.2778 55.3034 15.0471C53.8968 13.8164 51.9892 13.125 50 13.125C48.1532 13.1286 46.3729 13.7284 45 14.8094C43.5931 13.7922 41.8251 13.2358 40 13.2358C38.175 13.2358 36.407 13.7922 35 14.8094C33.9219 13.9656 32.5878 13.4126 31.1586 13.217C29.7295 13.0215 28.2662 13.1918 26.9451 13.7073C25.624 14.2229 24.5015 15.0617 23.7128 16.1228C22.9241 17.1838 22.503 18.4218 22.5 19.6875C22.4965 20.3933 22.6231 21.0951 22.875 21.7656C16.0383 28.0288 12.3089 36.4031 12.5 45.0625C12.5 52.9156 24.575 59.0625 40 59.0625C55.425 59.0625 67.5001 52.9156 67.5001 45.0625C67.6513 36.4377 63.9152 28.1076 57.1001 21.875Z" fill="#FFD89E"/>
<path d="M40 30.625C39.337 30.625 38.7011 30.3945 38.2322 29.9843C37.7634 29.5741 37.5 29.0177 37.5 28.4375V24.0625C37.5 23.4823 37.7634 22.9259 38.2322 22.5157C38.7011 22.1055 39.337 21.875 40 21.875C40.663 21.875 41.2989 22.1055 41.7678 22.5157C42.2366 22.9259 42.5 23.4823 42.5 24.0625V28.4375C42.5 29.0177 42.2366 29.5741 41.7678 29.9843C41.2989 30.3945 40.663 30.625 40 30.625Z" fill="#FFCB7C"/>
<path d="M32.5 30.625C31.837 30.625 31.2011 30.3945 30.7322 29.9843C30.2634 29.5741 30 29.0177 30 28.4375V24.0625C30 23.4823 30.2634 22.9259 30.7322 22.5157C31.2011 22.1055 31.837 21.875 32.5 21.875C33.163 21.875 33.7989 22.1055 34.2678 22.5157C34.7366 22.9259 35 23.4823 35 24.0625V28.4375C35 29.0177 34.7366 29.5741 34.2678 29.9843C33.7989 30.3945 33.163 30.625 32.5 30.625Z" fill="#FFCB7C"/>
<path d="M47.5 30.625C46.837 30.625 46.2011 30.3945 45.7322 29.9843C45.2634 29.5741 45 29.0177 45 28.4375V24.0625C45 23.4823 45.2634 22.9259 45.7322 22.5157C46.2011 22.1055 46.837 21.875 47.5 21.875C48.163 21.875 48.7989 22.1055 49.2678 22.5157C49.7366 22.9259 50 23.4823 50 24.0625V28.4375C50 29.0177 49.7366 29.5741 49.2678 29.9843C48.7989 30.3945 48.163 30.625 47.5 30.625Z" fill="#FFCB7C"/>
</svg>
