<svg width="51" height="50" viewBox="0 0 51 50" fill="none" xmlns="http://www.w3.org/2000/svg">
<path d="M25.1346 0C19.024 0 13.1637 2.38338 8.84286 6.62582C4.52202 10.8683 2.09459 16.6223 2.09459 22.622C2.09459 23.1674 2.31526 23.6905 2.70807 24.0762C3.10087 24.4618 3.63363 24.6785 4.18914 24.6785H46.0801C46.6357 24.6785 47.1684 24.4618 47.5612 24.0762C47.954 23.6905 48.1747 23.1674 48.1747 22.622C48.1747 16.6223 45.7473 10.8683 41.4264 6.62582C37.1056 2.38338 31.2452 0 25.1346 0Z" fill="#FFF9CF"/>
<path d="M18.851 12.3392H16.7564C16.2009 12.3392 15.6682 12.1225 15.2754 11.7369C14.8826 11.3512 14.6619 10.8281 14.6619 10.2827C14.6619 9.73725 14.8826 9.21416 15.2754 8.82848C15.6682 8.44281 16.2009 8.22614 16.7564 8.22614H18.851C19.4065 8.22614 19.9392 8.44281 20.3321 8.82848C20.7249 9.21416 20.9455 9.73725 20.9455 10.2827C20.9455 10.8281 20.7249 11.3512 20.3321 11.7369C19.9392 12.1225 19.4065 12.3392 18.851 12.3392Z" fill="white"/>
<path d="M33.5128 12.3392H31.4182C30.8627 12.3392 30.33 12.1225 29.9371 11.7369C29.5443 11.3512 29.3237 10.8281 29.3237 10.2827C29.3237 9.73725 29.5443 9.21416 29.9371 8.82848C30.33 8.44281 30.8627 8.22614 31.4182 8.22614H33.5128C34.0683 8.22614 34.601 8.44281 34.9938 8.82848C35.3866 9.21416 35.6073 9.73725 35.6073 10.2827C35.6073 10.8281 35.3866 11.3512 34.9938 11.7369C34.601 12.1225 34.0683 12.3392 33.5128 12.3392Z" fill="white"/>
<path d="M12.5673 18.5089H10.4728C9.91726 18.5089 9.3845 18.2922 8.9917 17.9066C8.5989 17.5209 8.37822 16.9978 8.37822 16.4524C8.37822 15.9069 8.5989 15.3838 8.9917 14.9982C9.3845 14.6125 9.91726 14.3958 10.4728 14.3958H12.5673C13.1228 14.3958 13.6556 14.6125 14.0484 14.9982C14.4412 15.3838 14.6619 15.9069 14.6619 16.4524C14.6619 16.9978 14.4412 17.5209 14.0484 17.9066C13.6556 18.2922 13.1228 18.5089 12.5673 18.5089Z" fill="white"/>
<path d="M20.9455 18.5089H18.8509C18.2954 18.5089 17.7627 18.2922 17.3699 17.9066C16.9771 17.5209 16.7564 16.9978 16.7564 16.4524C16.7564 15.9069 16.9771 15.3838 17.3699 14.9982C17.7627 14.6125 18.2954 14.3958 18.8509 14.3958H20.9455C21.501 14.3958 22.0337 14.6125 22.4265 14.9982C22.8194 15.3838 23.04 15.9069 23.04 16.4524C23.04 16.9978 22.8194 17.5209 22.4265 17.9066C22.0337 18.2922 21.501 18.5089 20.9455 18.5089Z" fill="white"/>
<path d="M31.4183 18.5089H29.3237C28.7682 18.5089 28.2355 18.2922 27.8426 17.9066C27.4498 17.5209 27.2292 16.9978 27.2292 16.4524C27.2292 15.9069 27.4498 15.3838 27.8426 14.9982C28.2355 14.6125 28.7682 14.3958 29.3237 14.3958H31.4183C31.9738 14.3958 32.5065 14.6125 32.8993 14.9982C33.2921 15.3838 33.5128 15.9069 33.5128 16.4524C33.5128 16.9978 33.2921 17.5209 32.8993 17.9066C32.5065 18.2922 31.9738 18.5089 31.4183 18.5089Z" fill="white"/>
<path d="M39.7964 18.5089H37.7019C37.1464 18.5089 36.6136 18.2922 36.2208 17.9066C35.828 17.5209 35.6073 16.9978 35.6073 16.4524C35.6073 15.9069 35.828 15.3838 36.2208 14.9982C36.6136 14.6125 37.1464 14.3958 37.7019 14.3958H39.7964C40.3519 14.3958 40.8847 14.6125 41.2775 14.9982C41.6703 15.3838 41.891 15.9069 41.891 16.4524C41.891 16.9978 41.6703 17.5209 41.2775 17.9066C40.8847 18.2922 40.3519 18.5089 39.7964 18.5089Z" fill="white"/>
<path d="M48.824 30.8482H31.4183C30.8627 30.8482 30.33 30.6315 29.9372 30.2459C29.5444 29.8602 29.3237 29.3371 29.3237 28.7917C29.3237 28.2462 29.5444 27.7231 29.9372 27.3375C30.33 26.9518 30.8627 26.7351 31.4183 26.7351H49.9131C50.1486 25.3763 50.2677 24.0004 50.2692 22.622C50.2692 22.0766 50.0485 21.5535 49.6557 21.1678C49.2629 20.7822 48.7302 20.5655 48.1747 20.5655H2.09455C1.53904 20.5655 1.00628 20.7822 0.61348 21.1678C0.220676 21.5535 0 22.0766 0 22.622C0.00281093 27.4291 1.43545 32.1308 4.12196 36.1495C6.80848 40.1683 10.6319 43.3292 15.1227 45.244H14.6619C14.1063 45.244 13.5736 45.4607 13.1808 45.8464C12.788 46.232 12.5673 46.7551 12.5673 47.3006C12.5673 47.846 12.788 48.3691 13.1808 48.7547C13.5736 49.1404 14.1063 49.3571 14.6619 49.3571H35.6074C36.1629 49.3571 36.6956 49.1404 37.0884 48.7547C37.4812 48.3691 37.7019 47.846 37.7019 47.3006C37.7019 46.7551 37.4812 46.232 37.0884 45.8464C36.6956 45.4607 36.1629 45.244 35.6074 45.244H35.1466C38.3057 43.8871 41.1488 41.9101 43.501 39.4344C45.8531 36.9587 47.6646 34.0367 48.824 30.8482Z" fill="#F7A676"/>
</svg>
