<svg width="263" height="288" viewBox="0 0 263 288" fill="none" xmlns="http://www.w3.org/2000/svg">
<path d="M203.98 118.969C202.83 118.522 201.605 118.322 200.387 118.384C199.168 118.445 197.982 118.766 196.904 119.325L73.5088 183.737C72.434 184.301 71.4928 185.091 70.7457 186.056C69.9986 187.021 69.4622 188.139 69.1709 189.339C68.867 190.539 68.8158 191.797 69.0207 193.032C69.2256 194.266 69.682 195.45 70.3604 196.506L119.561 271.961C120.78 273.828 122.628 275.183 124.745 275.761C126.861 276.34 129.094 276.1 131.008 275.088L238.979 218.728C240.902 217.736 242.376 216.041 243.112 213.974C243.847 211.907 243.792 209.616 242.957 207.549L209.18 124.042C208.702 122.882 207.992 121.831 207.096 120.957C206.201 120.083 205.139 119.405 203.98 118.969Z" fill="#A46F3E"/>
<path d="M181.913 96.809L63.6072 158.564C53.683 163.745 49.9658 176.235 55.3047 186.463L56.7153 189.166C62.0542 199.393 74.4274 203.485 84.3516 198.305L202.657 136.549C212.581 131.369 216.298 118.878 210.96 108.65L209.549 105.948C204.21 95.7203 191.837 91.6286 181.913 96.809Z" fill="#FFF5BB"/>
<path d="M154.041 81.0163L66.585 126.668C56.6607 131.849 52.9435 144.34 58.2824 154.567L59.6931 157.27C65.0319 167.498 77.4052 171.589 87.3294 166.409L174.786 120.757C184.71 115.576 188.427 103.085 183.088 92.8576L181.678 90.1553C176.339 79.9275 163.966 75.8358 154.041 81.0163Z" fill="#EDE3B2"/>
<path d="M126.17 65.2235L69.5627 94.7726C59.6385 99.953 55.9213 112.444 61.2602 122.672L62.6708 125.374C68.0097 135.602 80.3829 139.693 90.3072 134.513L146.915 104.964C156.839 99.7835 160.556 87.2927 155.217 77.0649L153.807 74.3625C148.468 64.1347 136.095 60.0431 126.17 65.2235Z" fill="#DBD2A1"/>
<path d="M77.1221 40.2576C63.2401 47.504 63.9843 71.4898 70.581 84.1272C73.8821 90.4511 79.4855 95.2436 86.1587 97.4503C92.8319 99.6571 100.028 99.0973 106.164 95.8942C112.301 92.6911 116.874 87.1071 118.879 80.3705C120.884 73.6339 120.155 66.2966 116.854 59.9727C110.258 47.3352 91.0041 33.0112 77.1221 40.2576Z" fill="#F9DA49"/>
</svg>
