<svg width="362" height="364" viewBox="0 0 362 364" fill="none" xmlns="http://www.w3.org/2000/svg">
<g clip-path="url(#clip0_20_281)">
<path d="M119.811 228.92C125.66 218.112 134.685 209.371 145.614 203.929C140.963 196.08 139.046 186.846 140.163 177.673C141.281 168.499 145.37 159.903 151.791 153.229C158.211 146.556 166.601 142.182 175.648 140.792C184.694 139.402 193.887 141.074 201.787 145.547C206.337 148.173 218.65 142.115 227.621 126.576C236.593 111.037 235.683 97.3449 231.133 94.718C210.367 82.7196 185.845 78.8703 162.164 83.8921C138.483 88.9138 117.27 102.462 102.503 121.995C87.7365 141.528 80.4302 165.705 81.9546 189.992C83.479 214.279 93.7293 237.007 110.783 253.914C112.066 245.074 115.14 236.565 119.811 228.92Z" fill="#866539"/>
<path d="M241.84 134.786C235.991 145.593 226.965 154.334 216.037 159.776C220.688 167.625 222.605 176.859 221.488 186.033C220.37 195.206 216.281 203.803 209.86 210.476C203.439 217.149 195.049 221.523 186.003 222.913C176.956 224.304 167.764 222.632 159.864 218.159C155.314 215.532 143.001 221.59 134.03 237.129C125.058 252.668 125.968 266.36 130.518 268.987C151.283 280.986 175.806 284.835 199.487 279.813C223.168 274.792 244.381 261.244 259.148 241.711C273.914 222.177 281.221 198 279.696 173.714C278.172 149.427 267.922 126.699 250.868 109.791C249.584 118.631 246.511 127.141 241.84 134.786Z" fill="#FDBA55"/>
<path d="M115.566 163.539L111.374 170.8C110.262 172.726 108.447 174.14 106.327 174.732C104.208 175.324 101.958 175.045 100.072 173.956C98.187 172.868 96.8204 171.059 96.2733 168.927C95.7263 166.796 96.0436 164.516 97.1554 162.591L101.348 155.329C102.46 153.404 104.275 151.989 106.394 151.397C108.514 150.805 110.764 151.084 112.649 152.173C114.535 153.261 115.901 155.07 116.448 157.202C116.996 159.333 116.678 161.613 115.566 163.539Z" fill="#65F7C4"/>
<path d="M139.445 138.598C138.333 140.524 136.518 141.939 134.398 142.531C132.279 143.123 130.029 142.844 128.143 141.755L121.034 137.65C119.148 136.562 117.782 134.753 117.235 132.621C116.688 130.49 117.005 128.21 118.117 126.285C119.229 124.359 121.044 122.944 123.163 122.352C125.283 121.76 127.533 122.039 129.418 123.128L136.528 127.232C138.413 128.321 139.78 130.13 140.327 132.262C140.874 134.393 140.557 136.672 139.445 138.598Z" fill="white"/>
<path d="M166.24 125.024C165.128 126.95 163.313 128.364 161.194 128.956C159.074 129.548 156.824 129.269 154.939 128.18L147.829 124.076C145.944 122.987 144.577 121.178 144.03 119.047C143.483 116.915 143.8 114.636 144.912 112.71C146.024 110.784 147.839 109.37 149.959 108.778C152.078 108.186 154.328 108.465 156.214 109.553L163.323 113.658C165.209 114.747 166.575 116.556 167.122 118.687C167.669 120.819 167.352 123.098 166.24 125.024Z" fill="#E5B745"/>
<path d="M200.145 115.554L195.953 122.815C194.841 124.741 193.025 126.155 190.906 126.747C188.787 127.339 186.537 127.06 184.651 125.972C182.766 124.883 181.399 123.074 180.852 120.943C180.305 118.811 180.622 116.532 181.734 114.606L185.926 107.345C187.038 105.419 188.854 104.004 190.973 103.412C193.092 102.82 195.342 103.099 197.228 104.188C199.113 105.277 200.48 107.086 201.027 109.217C201.574 111.349 201.257 113.628 200.145 115.554Z" fill="#65F7C4"/>
<path d="M120.125 204.897C119.013 206.823 117.198 208.238 115.079 208.829C112.959 209.421 110.709 209.142 108.824 208.054L101.714 203.949C99.8288 202.861 98.4622 201.052 97.9152 198.92C97.3681 196.789 97.6854 194.509 98.7973 192.584C99.9091 190.658 101.724 189.243 103.844 188.651C105.963 188.059 108.213 188.338 110.099 189.427L117.208 193.531C119.094 194.62 120.46 196.429 121.007 198.561C121.554 200.692 121.237 202.971 120.125 204.897Z" fill="#E5B745"/>
</g>
<defs>
<clipPath id="clip0_20_281">
<rect width="268.305" height="262.692" fill="white" transform="translate(0 232.359) rotate(-60)"/>
</clipPath>
</defs>
</svg>
