<svg width="299" height="349" viewBox="0 0 299 349" fill="none" xmlns="http://www.w3.org/2000/svg">
<path d="M144.645 230.556L102.997 206.511C100.236 204.916 96.9167 204.549 93.77 205.49C90.6233 206.431 87.9068 208.603 86.2181 211.528L57.7566 260.825C53.5167 268.232 52.2132 276.919 54.1299 284.994C56.0467 293.069 61.0283 299.877 67.9895 303.935L77.7766 309.586C84.7713 313.585 93.1582 314.495 101.11 312.118C109.061 309.74 115.933 304.268 120.228 296.892L148.689 247.596C150.378 244.671 150.901 241.232 150.142 238.037C149.384 234.841 147.406 232.15 144.645 230.556Z" fill="#42210B"/>
<path d="M232.673 46.1066L218.721 38.0515C201.225 28.0275 180.236 25.741 160.336 31.6911C140.437 37.6412 123.243 51.3446 112.509 69.8097L44.5707 187.483C42.882 190.407 42.3594 193.846 43.1179 197.041C43.8764 200.237 45.8539 202.928 48.6153 204.522L173.558 276.658C176.319 278.252 179.638 278.619 182.785 277.678C185.932 276.737 188.648 274.566 190.337 271.641L258.275 153.968C268.9 135.439 272.17 113.698 267.373 93.4891C262.577 73.2807 250.102 56.2469 232.673 46.1066Z" fill="#FFAA01"/>
<path d="M163.746 197.471C160.985 195.876 159.008 193.186 158.249 189.99C157.491 186.794 158.013 183.356 159.702 180.431L185.171 136.318C186.859 133.393 189.576 131.221 192.723 130.28C195.869 129.339 199.189 129.706 201.95 131.3C204.711 132.895 206.689 135.586 207.447 138.781C208.206 141.977 207.683 145.415 205.995 148.34L180.526 192.454C178.837 195.379 176.12 197.55 172.974 198.491C169.827 199.432 166.508 199.065 163.746 197.471Z" fill="#FDC536"/>
<path d="M122.099 173.426C119.338 171.831 117.36 169.14 116.602 165.945C115.843 162.749 116.366 159.311 118.054 156.386L143.523 112.272C145.212 109.347 147.928 107.176 151.075 106.235C154.222 105.294 157.541 105.661 160.302 107.255C163.064 108.85 165.041 111.54 165.8 114.736C166.558 117.932 166.036 121.37 164.347 124.295L138.878 168.408C137.189 171.333 134.473 173.505 131.326 174.446C128.18 175.387 124.86 175.02 122.099 173.426Z" fill="#FDC536"/>
</svg>
