<svg width="410" height="419" viewBox="0 0 410 419" fill="none" xmlns="http://www.w3.org/2000/svg">
<g clip-path="url(#clip0_415_126)">
<path d="M244.074 140.916C241.992 139.714 240.516 137.661 239.97 135.207C239.424 132.754 239.853 130.101 241.163 127.833L251.038 110.729C252.347 108.461 254.43 106.763 256.828 106.009C259.226 105.255 261.742 105.506 263.824 106.708C265.905 107.91 267.381 109.963 267.927 112.417C268.473 114.87 268.044 117.523 266.735 119.791L256.86 136.895C255.55 139.163 253.467 140.861 251.069 141.615C248.672 142.369 246.155 142.118 244.074 140.916Z" fill="#B5985D"/>
<path d="M249.011 132.364C234.884 124.208 213.567 139.381 205.716 152.978C201.788 159.783 200.501 167.741 202.138 175.101C203.776 182.462 208.204 188.623 214.449 192.228C220.693 195.833 228.243 196.588 235.436 194.326C242.629 192.064 248.878 186.97 252.806 180.166C260.657 166.568 263.138 140.52 249.011 132.364Z" fill="#FFAC33"/>
<path d="M279.262 206.843L169.385 143.405C160.716 138.4 149.267 142 143.813 151.447L133.938 168.551C128.485 177.997 131.091 189.712 139.76 194.717L249.637 258.155C258.306 263.16 269.755 259.56 275.209 250.113L285.084 233.009C290.538 223.563 287.931 211.848 279.262 206.843Z" fill="#FFD983"/>
<path d="M229.887 292.363L120.01 228.925C111.341 223.92 99.8923 227.52 94.4385 236.967L84.5635 254.071C79.1097 263.517 81.7161 275.232 90.3852 280.237L200.262 343.675C208.931 348.68 220.38 345.08 225.834 335.633L235.709 318.529C241.163 309.083 238.556 297.368 229.887 292.363Z" fill="#FFD983"/>
<path d="M208.91 274.322C202.159 270.619 196.554 265.107 192.623 258.306C190.203 253.874 186.619 250.307 182.256 247.987C178.066 245.369 173.184 244.049 168.136 244.168C160.312 244.164 152.765 242.083 146.201 238.117C139.45 234.415 133.845 228.902 129.915 222.101C127.48 217.641 123.867 214.057 119.469 211.737C117.388 210.535 115.912 208.482 115.366 206.028C114.82 203.575 115.249 200.922 116.558 198.654C117.868 196.386 119.951 194.688 122.349 193.934C124.746 193.18 127.263 193.431 129.344 194.633C136.081 198.306 141.663 203.807 145.552 210.604C147.987 215.064 151.6 218.648 155.998 220.968C160.188 223.586 165.069 224.906 170.117 224.787C177.973 224.79 185.549 226.888 192.131 230.883C198.882 234.586 204.487 240.098 208.417 246.899C210.852 251.359 214.465 254.944 218.863 257.263C223.085 259.881 227.988 261.215 233.061 261.128C240.86 261.098 248.387 263.166 254.918 267.133C257 268.335 258.476 270.388 259.021 272.842C259.567 275.296 259.138 277.948 257.829 280.216C256.519 282.484 254.437 284.182 252.039 284.936C249.641 285.69 247.125 285.439 245.043 284.237C240.835 281.588 235.925 280.252 230.845 280.373C223.021 280.369 215.473 278.287 208.91 274.322V274.322Z" fill="#BE1931"/>
</g>
<defs>
<clipPath id="clip0_415_126">
<rect width="290" height="316" fill="white" transform="translate(158) rotate(30)"/>
</clipPath>
</defs>
</svg>
